<svg preserveAspectRatio="none" overflow="visible" style="display: block;" width="31.7557" height="40" viewBox="0 0 31.7557 40" fill="none" xmlns="http://www.w3.org/2000/svg">
<g id="Ellipse">
<mask id="path-1-inside-1_0_8" fill="white">
<path d="M11.7557 0C14.9119 -1.37962e-07 18.0233 0.746981 20.8355 2.17987C23.6477 3.61276 26.0809 5.69087 27.936 8.24429C29.7912 10.7977 31.0157 13.754 31.5095 16.8713C32.0032 19.9887 31.7522 23.1786 30.7768 26.1803C29.8015 29.1821 28.1296 31.9104 25.8978 34.1421C23.6661 36.3739 20.9378 38.0458 17.936 39.0211C14.9343 39.9965 11.7444 40.2475 8.62702 39.7538C5.50967 39.26 2.55343 38.0355 -1.81087e-07 36.1803L2.35114 32.9443C4.39388 34.4284 6.75887 35.408 9.25275 35.803C11.7466 36.198 14.2986 35.9972 16.7 35.2169C19.1014 34.4366 21.284 33.0991 23.0694 31.3137C24.8548 29.5283 26.1924 27.3457 26.9726 24.9443C27.7529 22.5429 27.9537 19.9909 27.5587 17.497C27.1637 15.0032 26.1841 12.6382 24.7 10.5954C23.2158 8.55269 21.2693 6.89021 19.0196 5.7439C16.7698 4.59758 14.2807 4 11.7557 4L11.7557 0Z"/>
</mask>
<path d="M11.7557 0C14.9119 -1.37962e-07 18.0233 0.746981 20.8355 2.17987C23.6477 3.61276 26.0809 5.69087 27.936 8.24429C29.7912 10.7977 31.0157 13.754 31.5095 16.8713C32.0032 19.9887 31.7522 23.1786 30.7768 26.1803C29.8015 29.1821 28.1296 31.9104 25.8978 34.1421C23.6661 36.3739 20.9378 38.0458 17.936 39.0211C14.9343 39.9965 11.7444 40.2475 8.62702 39.7538C5.50967 39.26 2.55343 38.0355 -1.81087e-07 36.1803L2.35114 32.9443C4.39388 34.4284 6.75887 35.408 9.25275 35.803C11.7466 36.198 14.2986 35.9972 16.7 35.2169C19.1014 34.4366 21.284 33.0991 23.0694 31.3137C24.8548 29.5283 26.1924 27.3457 26.9726 24.9443C27.7529 22.5429 27.9537 19.9909 27.5587 17.497C27.1637 15.0032 26.1841 12.6382 24.7 10.5954C23.2158 8.55269 21.2693 6.89021 19.0196 5.7439C16.7698 4.59758 14.2807 4 11.7557 4L11.7557 0Z" stroke="#C79654" stroke-width="12" mask="url(#path-1-inside-1_0_8)"/>
</g>
</svg>
