<svg xmlns="http://www.w3.org/2000/svg" width="1440" height="760" viewBox="0 0 1440 760" role="img" aria-label="FoodMate 会话页原型图">
  <rect width="1440" height="760" fill="#F8F7F3"/>
  <rect x="0" y="0" width="286" height="760" fill="#FBFAF6"/>
  <line x1="286" y1="0" x2="286" y2="760" stroke="#E5E0D3"/>
  <circle cx="48" cy="48" r="18" fill="#2F6F4E"/><circle cx="48" cy="48" r="10" fill="#FFF0DF"/>
  <text x="78" y="56" font-family="Noto Sans SC, Microsoft YaHei, Arial" font-size="22" font-weight="800" fill="#23251F">FoodMate</text>
  <rect x="30" y="104" width="226" height="52" rx="9" fill="#2F6F4E"/>
  <text x="84" y="137" font-family="Noto Sans SC, Microsoft YaHei, Arial" font-size="17" font-weight="800" fill="#FFFFFF">+ 新建 Agent 会话</text>
  <line x1="0" y1="194" x2="286" y2="194" stroke="#E5E0D3"/>
  <text x="30" y="236" font-family="Noto Sans SC, Microsoft YaHei, Arial" font-size="13" font-weight="700" fill="#9AA194">最近 Agent 会话</text>
  <rect x="30" y="268" width="226" height="62" rx="8" fill="#EDF4EF" stroke="#B9D1BF"/>
  <text x="48" y="294" font-family="Noto Sans SC, Microsoft YaHei, Arial" font-size="13" font-weight="700" fill="#23251F">一周备餐计划</text>
  <text x="48" y="316" font-family="Noto Sans SC, Microsoft YaHei, Arial" font-size="11" fill="#6F7468">执行中 · 规划校验</text>
  <rect x="30" y="344" width="226" height="54" rx="8" fill="#FFFFFF" stroke="#E5E0D3"/>
  <text x="48" y="376" font-family="Noto Sans SC, Microsoft YaHei, Arial" font-size="12" fill="#23251F">记录今天午餐</text>
  <line x1="0" y1="698" x2="286" y2="698" stroke="#E5E0D3"/>
  <circle cx="38" cy="728" r="19" fill="#2F6F4E"/><text x="32" y="735" font-family="Noto Sans SC, Microsoft YaHei, Arial" font-size="17" font-weight="800" fill="#FFFFFF">W</text>
  <text x="70" y="724" font-family="Noto Sans SC, Microsoft YaHei, Arial" font-size="15" font-weight="700" fill="#23251F">wyh</text>
  <text x="70" y="744" font-family="Noto Sans SC, Microsoft YaHei, Arial" font-size="12" fill="#6F7468">查看和编辑资料</text>

  <rect x="286" y="0" width="1154" height="76" fill="#FFFFFF"/>
  <line x1="286" y1="76" x2="1440" y2="76" stroke="#E5E0D3"/>
  <text x="324" y="50" font-family="Noto Sans SC, Microsoft YaHei, Arial" font-size="28" fill="#405060">☰</text>
  <text x="418" y="48" font-family="Noto Sans SC, Microsoft YaHei, Arial" font-size="16" font-weight="800" fill="#23251F">一周备餐计划</text>
  <rect x="944" y="23" width="104" height="32" rx="16" fill="#FFFFFF" stroke="#E5E0D3"/><text x="970" y="44" font-family="Noto Sans SC, Microsoft YaHei, Arial" font-size="14" fill="#405060">🍴 饮食管理</text>
  <rect x="1062" y="23" width="92" height="32" rx="16" fill="#FFFFFF" stroke="#E5E0D3"/><text x="1086" y="44" font-family="Noto Sans SC, Microsoft YaHei, Arial" font-size="14" fill="#405060">📖 知识库</text>
  <rect x="1168" y="23" width="116" height="32" rx="16" fill="#FFFFFF" stroke="#E5E0D3"/><text x="1190" y="44" font-family="Noto Sans SC, Microsoft YaHei, Arial" font-size="14" fill="#405060">▥ 数据分析</text>
  <rect x="1302" y="23" width="78" height="32" rx="16" fill="#F2EFE6"/><text x="1321" y="44" font-family="Noto Sans SC, Microsoft YaHei, Arial" font-size="14" font-weight="700" fill="#405060">wyh</text>

  <rect x="328" y="104" width="762" height="42" rx="10" fill="#FBFAF6" stroke="#D9D5C8"/>
  <text x="350" y="130" font-family="Noto Sans SC, Microsoft YaHei, Arial" font-size="13" font-weight="700" fill="#23251F">Agent 运行状态</text>
  <text x="474" y="130" font-family="Noto Sans SC, Microsoft YaHei, Arial" font-size="12" fill="#2F6F4E">routing ✓</text>
  <text x="560" y="130" font-family="Noto Sans SC, Microsoft YaHei, Arial" font-size="12" fill="#2F6F4E">planning ✓</text>
  <text x="652" y="130" font-family="Noto Sans SC, Microsoft YaHei, Arial" font-size="12" fill="#D88A3D">executing...</text>
  <text x="760" y="130" font-family="Noto Sans SC, Microsoft YaHei, Arial" font-size="12" fill="#9AA194">validating</text>

  <rect x="328" y="164" width="762" height="428" rx="10" fill="#FFFFFF" stroke="#E5E0D3"/>
  <rect x="358" y="192" width="410" height="48" rx="8" fill="#F2EFE6"/>
  <text x="378" y="222" font-family="Noto Sans SC, Microsoft YaHei, Arial" font-size="13" fill="#23251F">帮 2 个人做 5 天工作餐，预算 300 元，不吃猪肉。</text>
  <rect x="620" y="264" width="426" height="70" rx="8" fill="#EDF4EF" stroke="#B9D1BF"/>
  <text x="642" y="292" font-family="Noto Sans SC, Microsoft YaHei, Arial" font-size="13" font-weight="700" fill="#23251F">Agent 正在执行工具</text>
  <text x="642" y="316" font-family="Noto Sans SC, Microsoft YaHei, Arial" font-size="12" fill="#6F7468">正在校验预算、营养和食材复用率。</text>
  <rect x="358" y="360" width="688" height="176" rx="8" fill="#FBFAF6" stroke="#D9D5C8"/>
  <text x="382" y="394" font-family="Noto Sans SC, Microsoft YaHei, Arial" font-size="15" font-weight="800" fill="#23251F">结果卡预览</text>
  <text x="382" y="426" font-family="Noto Sans SC, Microsoft YaHei, Arial" font-size="12" fill="#6F7468">摘要：生成 5 天午晚餐，预算 286 元，蛋白质日均约 78g。</text>
  <rect x="382" y="460" width="132" height="34" rx="8" fill="#FFFFFF" stroke="#E5E0D3"/><text x="405" y="482" font-family="Noto Sans SC, Microsoft YaHei, Arial" font-size="12" fill="#23251F">查看购物清单</text>
  <rect x="532" y="460" width="132" height="34" rx="8" fill="#2F6F4E"/><text x="558" y="482" font-family="Noto Sans SC, Microsoft YaHei, Arial" font-size="12" font-weight="800" fill="#FFFFFF">确认保存</text>

  <rect x="1114" y="104" width="270" height="488" rx="10" fill="#FBFAF6" stroke="#D9D5C8"/>
  <text x="1140" y="138" font-family="Noto Sans SC, Microsoft YaHei, Arial" font-size="15" font-weight="800" fill="#23251F">工具与引用</text>
  <rect x="1140" y="160" width="218" height="64" rx="8" fill="#FFFFFF" stroke="#E5E0D3"/>
  <text x="1158" y="186" font-family="Noto Sans SC, Microsoft YaHei, Arial" font-size="12" font-weight="700" fill="#23251F">knowledge_search</text>
  <text x="1158" y="208" font-family="Noto Sans SC, Microsoft YaHei, Arial" font-size="11" fill="#2F6F4E">success · 420ms</text>
  <rect x="1140" y="238" width="218" height="64" rx="8" fill="#FFFFFF" stroke="#E5E0D3"/>
  <text x="1158" y="264" font-family="Noto Sans SC, Microsoft YaHei, Arial" font-size="12" font-weight="700" fill="#23251F">plan_validator</text>
  <text x="1158" y="286" font-family="Noto Sans SC, Microsoft YaHei, Arial" font-size="11" fill="#D88A3D">running</text>
  <rect x="1140" y="340" width="218" height="86" rx="8" fill="#FFFFFF" stroke="#E5E0D3"/>
  <text x="1158" y="368" font-family="Noto Sans SC, Microsoft YaHei, Arial" font-size="12" font-weight="700" fill="#23251F">备餐指南</text>
  <text x="1158" y="392" font-family="Noto Sans SC, Microsoft YaHei, Arial" font-size="11" fill="#6F7468">食材复用、冷藏保存、预算控制</text>

  <text x="438" y="636" font-family="Noto Sans SC, Microsoft YaHei, Arial" font-size="15" font-weight="700" fill="#D88A3D">🔧 Tools（2/6）⌄</text>
  <text x="596" y="636" font-family="Noto Sans SC, Microsoft YaHei, Arial" font-size="15" font-weight="700" fill="#2F6F4E">🤖 Agents（1/1）⌄</text>
  <rect x="420" y="654" width="878" height="54" rx="13" fill="#FFFFFF" stroke="#D9D5C8"/>
  <text x="460" y="688" font-family="Noto Sans SC, Microsoft YaHei, Arial" font-size="15" fill="#9AA194">继续补充约束，或让 FoodMate 修改计划...</text>
  <rect x="1248" y="664" width="34" height="34" rx="9" fill="#B94A48"/><text x="1259" y="687" font-family="Noto Sans SC, Microsoft YaHei, Arial" font-size="15" fill="#FFFFFF">■</text>
</svg>
