<svg xmlns="http://www.w3.org/2000/svg" width="1440" height="760" viewBox="0 0 1440 760" role="img" aria-label="FoodMate 管理后台知识库原型图">
  <rect width="1440" height="760" fill="#F8F7F3"/><rect x="0" y="0" width="272" height="760" fill="#FFFFFF" stroke="#E5E0D3"/>
  <text x="52" y="56" font-family="Microsoft YaHei, Arial" font-size="26" font-weight="800" fill="#2F6F4E">FoodMate</text><text x="58" y="228" font-family="Microsoft YaHei, Arial" font-size="15" font-weight="800" fill="#23251F">概览</text><text x="58" y="288" font-family="Microsoft YaHei, Arial" font-size="15" font-weight="800" fill="#23251F">用户管理</text><text x="58" y="350" font-family="Microsoft YaHei, Arial" font-size="15" font-weight="800" fill="#23251F">Agent 运行</text><text x="58" y="410" font-family="Microsoft YaHei, Arial" font-size="15" font-weight="800" fill="#23251F">工具调用</text><text x="58" y="470" font-family="Microsoft YaHei, Arial" font-size="15" font-weight="800" fill="#23251F">模型用量</text><rect x="24" y="502" width="224" height="44" rx="8" fill="#2F6F4E"/><text x="58" y="530" font-family="Microsoft YaHei, Arial" font-size="16" font-weight="800" fill="#FFFFFF">知识库</text><text x="58" y="590" font-family="Microsoft YaHei, Arial" font-size="15" font-weight="800" fill="#23251F">软删除资源</text>
  <text x="336" y="54" font-family="Microsoft YaHei, Arial" font-size="16" font-weight="800" fill="#6F7468">FoodMate 管理后台 / 知识库</text><text x="336" y="128" font-family="Microsoft YaHei, Arial" font-size="34" font-weight="900" fill="#23251F">知识库</text><text x="336" y="164" font-family="Microsoft YaHei, Arial" font-size="15" fill="#6F7468">管理知识库文档、解析状态、索引进度和下线恢复。</text>
  <rect x="336" y="198" width="1000" height="64" rx="8" fill="#FFFFFF" stroke="#D9D5C8"/><text x="360" y="238" font-family="Microsoft YaHei, Arial" font-size="16" font-weight="800" fill="#23251F">筛选</text><rect x="430" y="216" width="220" height="30" rx="4" fill="#F2F3F5"/><text x="450" y="237" font-family="Microsoft YaHei, Arial" font-size="13" fill="#8A9284">documentId / title</text><rect x="1238" y="212" width="98" height="36" rx="5" fill="#1769FF"/><text x="1260" y="235" font-family="Microsoft YaHei, Arial" font-size="14" font-weight="800" fill="#FFFFFF">上传文档</text>
  <rect x="336" y="292" width="1000" height="340" rx="8" fill="#FFFFFF" stroke="#D9D5C8"/><text x="360" y="330" font-family="Microsoft YaHei, Arial" font-size="17" font-weight="800" fill="#405060">知识库文档</text><rect x="360" y="354" width="952" height="38" fill="#F2F3F5"/><text x="384" y="378" font-family="Microsoft YaHei, Arial" font-size="14" font-weight="800" fill="#23251F">文档</text><text x="690" y="378" font-family="Microsoft YaHei, Arial" font-size="14" font-weight="800" fill="#23251F">状态</text><text x="820" y="378" font-family="Microsoft YaHei, Arial" font-size="14" font-weight="800" fill="#23251F">Chunks</text><text x="960" y="378" font-family="Microsoft YaHei, Arial" font-size="14" font-weight="800" fill="#23251F">负责人</text>
  <text x="384" y="430" font-family="Microsoft YaHei, Arial" font-size="14" fill="#23251F">营养与烹饪指南</text><rect x="690" y="412" width="70" height="26" rx="4" fill="#E8FFE9"/><text x="704" y="430" font-family="Microsoft YaHei, Arial" font-size="13" fill="#00A32A">indexed</text><text x="820" y="430" font-family="Microsoft YaHei, Arial" font-size="14" fill="#23251F">428</text><text x="960" y="430" font-family="Microsoft YaHei, Arial" font-size="14" fill="#23251F">运营账号</text>
  <text x="384" y="492" font-family="Microsoft YaHei, Arial" font-size="14" fill="#23251F">家庭备餐规则</text><rect x="690" y="474" width="58" height="26" rx="4" fill="#FFECE8"/><text x="704" y="492" font-family="Microsoft YaHei, Arial" font-size="13" fill="#B94A48">failed</text><text x="820" y="492" font-family="Microsoft YaHei, Arial" font-size="14" fill="#23251F">0</text><text x="960" y="492" font-family="Microsoft YaHei, Arial" font-size="14" fill="#23251F">admin</text>
</svg>
