<svg xmlns="http://www.w3.org/2000/svg" width="1440" height="760" viewBox="0 0 1440 760" role="img" aria-label="FoodMate 分析页原型图">
  <rect width="1440" height="760" fill="#F8F7F3"/>
  <rect x="0" y="0" width="286" height="760" fill="#FBFAF6"/><line x1="286" y1="0" x2="286" y2="760" stroke="#E5E0D3"/>
  <circle cx="48" cy="48" r="18" fill="#2F6F4E"/><circle cx="48" cy="48" r="10" fill="#FFF0DF"/>
  <text x="78" y="56" font-family="Noto Sans SC, Microsoft YaHei, Arial" font-size="22" font-weight="800" fill="#23251F">FoodMate</text>
  <rect x="30" y="104" width="226" height="52" rx="9" fill="#2F6F4E"/><text x="84" y="137" font-family="Noto Sans SC, Microsoft YaHei, Arial" font-size="17" font-weight="800" fill="#FFFFFF">+ 新建 Agent 会话</text>
  <line x1="0" y1="194" x2="286" y2="194" stroke="#E5E0D3"/><text x="30" y="236" font-family="Noto Sans SC, Microsoft YaHei, Arial" font-size="13" font-weight="700" fill="#9AA194">最近 Agent 会话</text>
  <rect x="30" y="268" width="226" height="54" rx="8" fill="#FFFFFF" stroke="#E5E0D3"/><text x="48" y="300" font-family="Noto Sans SC, Microsoft YaHei, Arial" font-size="12" fill="#23251F">本周蛋白质分析</text>
  <line x1="0" y1="698" x2="286" y2="698" stroke="#E5E0D3"/><circle cx="38" cy="728" r="19" fill="#2F6F4E"/><text x="32" y="735" font-family="Noto Sans SC, Microsoft YaHei, Arial" font-size="17" font-weight="800" fill="#FFFFFF">W</text><text x="70" y="724" font-family="Noto Sans SC, Microsoft YaHei, Arial" font-size="15" font-weight="700" fill="#23251F">wyh</text><text x="70" y="744" font-family="Noto Sans SC, Microsoft YaHei, Arial" font-size="12" fill="#6F7468">查看和编辑资料</text>

  <rect x="286" y="0" width="1154" height="76" fill="#FFFFFF"/><line x1="286" y1="76" x2="1440" y2="76" stroke="#E5E0D3"/>
  <text x="324" y="50" font-family="Noto Sans SC, Microsoft YaHei, Arial" font-size="28" fill="#405060">☰</text>
  <text x="418" y="48" font-family="Noto Sans SC, Microsoft YaHei, Arial" font-size="16" font-weight="800" fill="#23251F">摄入分析</text>
  <rect x="938" y="23" width="104" height="32" rx="16" fill="#FFFFFF" stroke="#E5E0D3"/><text x="964" y="44" font-family="Noto Sans SC, Microsoft YaHei, Arial" font-size="14" fill="#405060">🍴 饮食管理</text>
  <rect x="1054" y="23" width="92" height="32" rx="16" fill="#FFFFFF" stroke="#E5E0D3"/><text x="1078" y="44" font-family="Noto Sans SC, Microsoft YaHei, Arial" font-size="14" fill="#405060">📖 知识库</text>
  <rect x="1158" y="23" width="116" height="32" rx="16" fill="#EDF4EF" stroke="#B9D1BF"/><text x="1180" y="44" font-family="Noto Sans SC, Microsoft YaHei, Arial" font-size="14" fill="#2F6F4E">▥ 数据分析</text>
  <rect x="1290" y="23" width="78" height="32" rx="16" fill="#F2EFE6"/><text x="1309" y="44" font-family="Noto Sans SC, Microsoft YaHei, Arial" font-size="14" font-weight="700" fill="#405060">wyh</text>

  <text x="340" y="126" font-family="Noto Sans SC, Microsoft YaHei, Arial" font-size="26" font-weight="800" fill="#23251F">最近 7 天摄入分析</text>
  <rect x="1186" y="100" width="124" height="36" rx="9" fill="#FFFFFF" stroke="#D9D5C8"/><text x="1218" y="123" font-family="Noto Sans SC, Microsoft YaHei, Arial" font-size="13" fill="#23251F">最近 7 天</text>
  <rect x="340" y="160" width="228" height="92" rx="9" fill="#FFFFFF" stroke="#D9D5C8"/><text x="362" y="190" font-family="Noto Sans SC, Microsoft YaHei, Arial" font-size="12" fill="#6F7468">总热量</text><text x="362" y="228" font-family="Noto Sans SC, Microsoft YaHei, Arial" font-size="30" font-weight="800" fill="#23251F">12,840</text><text x="488" y="228" font-family="Noto Sans SC, Microsoft YaHei, Arial" font-size="13" fill="#6F7468">kcal</text>
  <rect x="590" y="160" width="228" height="92" rx="9" fill="#FFFFFF" stroke="#D9D5C8"/><text x="612" y="190" font-family="Noto Sans SC, Microsoft YaHei, Arial" font-size="12" fill="#6F7468">蛋白质</text><text x="612" y="228" font-family="Noto Sans SC, Microsoft YaHei, Arial" font-size="30" font-weight="800" fill="#2F6F4E">486g</text>
  <rect x="840" y="160" width="228" height="92" rx="9" fill="#FFFFFF" stroke="#D9D5C8"/><text x="862" y="190" font-family="Noto Sans SC, Microsoft YaHei, Arial" font-size="12" fill="#6F7468">目标达成</text><text x="862" y="228" font-family="Noto Sans SC, Microsoft YaHei, Arial" font-size="30" font-weight="800" fill="#D88A3D">82%</text>
  <rect x="1090" y="160" width="220" height="92" rx="9" fill="#FFFFFF" stroke="#D9D5C8"/><text x="1112" y="190" font-family="Noto Sans SC, Microsoft YaHei, Arial" font-size="12" fill="#6F7468">记录餐次</text><text x="1112" y="228" font-family="Noto Sans SC, Microsoft YaHei, Arial" font-size="30" font-weight="800" fill="#326B8E">18</text>

  <rect x="340" y="284" width="644" height="280" rx="10" fill="#FBFAF6" stroke="#D9D5C8"/><text x="366" y="318" font-family="Noto Sans SC, Microsoft YaHei, Arial" font-size="16" font-weight="800" fill="#23251F">蛋白质趋势</text>
  <line x1="384" y1="508" x2="932" y2="508" stroke="#D9D5C8"/><line x1="384" y1="350" x2="384" y2="508" stroke="#D9D5C8"/>
  <polyline points="398,474 482,456 566,420 650,444 734,382 818,400 912,348" fill="none" stroke="#2F6F4E" stroke-width="4"/>
  <circle cx="398" cy="474" r="5" fill="#2F6F4E"/><circle cx="482" cy="456" r="5" fill="#2F6F4E"/><circle cx="566" cy="420" r="5" fill="#2F6F4E"/><circle cx="650" cy="444" r="5" fill="#2F6F4E"/><circle cx="734" cy="382" r="5" fill="#2F6F4E"/><circle cx="818" cy="400" r="5" fill="#2F6F4E"/><circle cx="912" cy="348" r="5" fill="#2F6F4E"/>
  <rect x="1012" y="284" width="298" height="280" rx="10" fill="#FFFFFF" stroke="#D9D5C8"/><text x="1038" y="318" font-family="Noto Sans SC, Microsoft YaHei, Arial" font-size="16" font-weight="800" fill="#23251F">异常与建议</text>
  <rect x="1038" y="342" width="246" height="58" rx="8" fill="#FFF0DF" stroke="#E6C49B"/><text x="1058" y="366" font-family="Noto Sans SC, Microsoft YaHei, Arial" font-size="12" font-weight="700" fill="#23251F">周三蛋白质偏低</text><text x="1058" y="388" font-family="Noto Sans SC, Microsoft YaHei, Arial" font-size="11" fill="#6F7468">建议补充鸡蛋、豆腐或鱼肉。</text>
  <rect x="1038" y="416" width="246" height="58" rx="8" fill="#E8F0F5" stroke="#B7CBD8"/><text x="1058" y="440" font-family="Noto Sans SC, Microsoft YaHei, Arial" font-size="12" font-weight="700" fill="#23251F">两餐缺少份量</text><text x="1058" y="462" font-family="Noto Sans SC, Microsoft YaHei, Arial" font-size="11" fill="#6F7468">结果包含估算，请补全克重。</text>

  <text x="456" y="628" font-family="Noto Sans SC, Microsoft YaHei, Arial" font-size="15" font-weight="700" fill="#D88A3D">🔧 Tools（1/6）⌄</text>
  <text x="610" y="628" font-family="Noto Sans SC, Microsoft YaHei, Arial" font-size="15" font-weight="700" fill="#2F6F4E">🤖 Agents（1/1）⌄</text>
  <rect x="438" y="646" width="876" height="54" rx="13" fill="#FFFFFF" stroke="#D9D5C8"/>
  <text x="526" y="680" font-family="Noto Sans SC, Microsoft YaHei, Arial" font-size="15" fill="#9AA194">继续追问分析口径，例如：按早餐/午餐拆开...</text>
</svg>
