<svg xmlns="http://www.w3.org/2000/svg" width="1440" height="760" viewBox="0 0 1440 760" role="img" aria-label="FoodMate 管理后台工具调用原型图">
  <rect width="1440" height="760" fill="#F8F7F3"/><rect x="0" y="0" width="272" height="760" fill="#FFFFFF" stroke="#E5E0D3"/>
  <text x="52" y="56" font-family="Microsoft YaHei, Arial" font-size="26" font-weight="800" fill="#2F6F4E">FoodMate</text><text x="58" y="228" font-family="Microsoft YaHei, Arial" font-size="15" font-weight="800" fill="#23251F">概览</text><text x="58" y="288" font-family="Microsoft YaHei, Arial" font-size="15" font-weight="800" fill="#23251F">用户管理</text><text x="58" y="350" font-family="Microsoft YaHei, Arial" font-size="15" font-weight="800" fill="#23251F">Agent 运行</text><rect x="24" y="382" width="224" height="44" rx="8" fill="#2F6F4E"/><text x="58" y="410" font-family="Microsoft YaHei, Arial" font-size="16" font-weight="800" fill="#FFFFFF">工具调用</text><text x="58" y="470" font-family="Microsoft YaHei, Arial" font-size="15" font-weight="800" fill="#23251F">模型用量</text><text x="58" y="530" font-family="Microsoft YaHei, Arial" font-size="15" font-weight="800" fill="#23251F">知识库</text><text x="58" y="590" font-family="Microsoft YaHei, Arial" font-size="15" font-weight="800" fill="#23251F">软删除资源</text>
  <text x="336" y="54" font-family="Microsoft YaHei, Arial" font-size="16" font-weight="800" fill="#6F7468">FoodMate 管理后台 / 工具调用</text><text x="336" y="128" font-family="Microsoft YaHei, Arial" font-size="34" font-weight="900" fill="#23251F">工具调用</text><text x="336" y="164" font-family="Microsoft YaHei, Arial" font-size="15" fill="#6F7468">治理工具注册表、版本、权限范围、风险等级和启停状态。</text>
  <rect x="336" y="198" width="1000" height="64" rx="8" fill="#FFFFFF" stroke="#D9D5C8"/><text x="360" y="238" font-family="Microsoft YaHei, Arial" font-size="16" font-weight="800" fill="#23251F">筛选</text><rect x="430" y="216" width="190" height="30" rx="4" fill="#F2F3F5"/><text x="450" y="237" font-family="Microsoft YaHei, Arial" font-size="13" fill="#8A9284">toolName / risk</text>
  <rect x="336" y="292" width="1000" height="340" rx="8" fill="#FFFFFF" stroke="#D9D5C8"/><text x="360" y="330" font-family="Microsoft YaHei, Arial" font-size="17" font-weight="800" fill="#405060">工具注册表</text><rect x="360" y="354" width="952" height="38" fill="#F2F3F5"/><text x="384" y="378" font-family="Microsoft YaHei, Arial" font-size="14" font-weight="800" fill="#23251F">工具名</text><text x="590" y="378" font-family="Microsoft YaHei, Arial" font-size="14" font-weight="800" fill="#23251F">版本</text><text x="720" y="378" font-family="Microsoft YaHei, Arial" font-size="14" font-weight="800" fill="#23251F">范围</text><text x="960" y="378" font-family="Microsoft YaHei, Arial" font-size="14" font-weight="800" fill="#23251F">风险</text><text x="1110" y="378" font-family="Microsoft YaHei, Arial" font-size="14" font-weight="800" fill="#23251F">状态</text>
  <text x="384" y="430" font-family="Microsoft YaHei, Arial" font-size="14" fill="#23251F">knowledge_search</text><text x="590" y="430" font-family="Microsoft YaHei, Arial" font-size="14" fill="#23251F">1.0.0</text><text x="720" y="430" font-family="Microsoft YaHei, Arial" font-size="14" fill="#23251F">user/operator/admin</text><rect x="960" y="412" width="72" height="26" rx="4" fill="#FFF0DF"/><text x="976" y="430" font-family="Microsoft YaHei, Arial" font-size="13" fill="#D88A3D">medium</text><rect x="1110" y="412" width="62" height="26" rx="4" fill="#E8FFE9"/><text x="1122" y="430" font-family="Microsoft YaHei, Arial" font-size="13" fill="#00A32A">active</text>
  <text x="384" y="492" font-family="Microsoft YaHei, Arial" font-size="14" fill="#23251F">food_log_writer</text><text x="590" y="492" font-family="Microsoft YaHei, Arial" font-size="14" fill="#23251F">1.0.0</text><text x="720" y="492" font-family="Microsoft YaHei, Arial" font-size="14" fill="#23251F">user</text><rect x="960" y="474" width="56" height="26" rx="4" fill="#FFECE8"/><text x="976" y="492" font-family="Microsoft YaHei, Arial" font-size="13" fill="#B94A48">high</text><rect x="1110" y="474" width="62" height="26" rx="4" fill="#E8FFE9"/><text x="1122" y="492" font-family="Microsoft YaHei, Arial" font-size="13" fill="#00A32A">active</text>
</svg>
