<svg xmlns="http://www.w3.org/2000/svg" width="1440" height="760" viewBox="0 0 1440 760" role="img" aria-label="FoodMate 规划页原型图">
  <rect width="1440" height="760" fill="#F8F7F3"/>
  <rect x="0" y="0" width="286" height="760" fill="#FBFAF6"/><line x1="286" y1="0" x2="286" y2="760" stroke="#E5E0D3"/>
  <circle cx="48" cy="48" r="18" fill="#2F6F4E"/><circle cx="48" cy="48" r="10" fill="#FFF0DF"/>
  <text x="78" y="56" font-family="Noto Sans SC, Microsoft YaHei, Arial" font-size="22" font-weight="800" fill="#23251F">FoodMate</text>
  <rect x="30" y="104" width="226" height="52" rx="9" fill="#2F6F4E"/><text x="84" y="137" font-family="Noto Sans SC, Microsoft YaHei, Arial" font-size="17" font-weight="800" fill="#FFFFFF">+ 新建 Agent 会话</text>
  <line x1="0" y1="194" x2="286" y2="194" stroke="#E5E0D3"/><text x="30" y="236" font-family="Noto Sans SC, Microsoft YaHei, Arial" font-size="13" font-weight="700" fill="#9AA194">最近 Agent 会话</text>
  <rect x="30" y="268" width="226" height="54" rx="8" fill="#EDF4EF" stroke="#B9D1BF"/><text x="48" y="300" font-family="Noto Sans SC, Microsoft YaHei, Arial" font-size="12" fill="#23251F">5 天工作餐规划</text>
  <line x1="0" y1="698" x2="286" y2="698" stroke="#E5E0D3"/><circle cx="38" cy="728" r="19" fill="#2F6F4E"/><text x="32" y="735" font-family="Noto Sans SC, Microsoft YaHei, Arial" font-size="17" font-weight="800" fill="#FFFFFF">W</text><text x="70" y="724" font-family="Noto Sans SC, Microsoft YaHei, Arial" font-size="15" font-weight="700" fill="#23251F">wyh</text><text x="70" y="744" font-family="Noto Sans SC, Microsoft YaHei, Arial" font-size="12" fill="#6F7468">查看和编辑资料</text>

  <rect x="286" y="0" width="1154" height="76" fill="#FFFFFF"/><line x1="286" y1="76" x2="1440" y2="76" stroke="#E5E0D3"/>
  <text x="324" y="50" font-family="Noto Sans SC, Microsoft YaHei, Arial" font-size="28" fill="#405060">☰</text>
  <text x="418" y="48" font-family="Noto Sans SC, Microsoft YaHei, Arial" font-size="16" font-weight="800" fill="#23251F">餐食规划</text>
  <rect x="938" y="23" width="104" height="32" rx="16" fill="#FFFFFF" stroke="#E5E0D3"/><text x="964" y="44" font-family="Noto Sans SC, Microsoft YaHei, Arial" font-size="14" fill="#405060">🍴 饮食管理</text>
  <rect x="1054" y="23" width="92" height="32" rx="16" fill="#FFFFFF" stroke="#E5E0D3"/><text x="1078" y="44" font-family="Noto Sans SC, Microsoft YaHei, Arial" font-size="14" fill="#405060">📖 知识库</text>
  <rect x="1158" y="23" width="116" height="32" rx="16" fill="#FFFFFF" stroke="#E5E0D3"/><text x="1180" y="44" font-family="Noto Sans SC, Microsoft YaHei, Arial" font-size="14" fill="#405060">▥ 数据分析</text>
  <rect x="1290" y="23" width="78" height="32" rx="16" fill="#F2EFE6"/><text x="1309" y="44" font-family="Noto Sans SC, Microsoft YaHei, Arial" font-size="14" font-weight="700" fill="#405060">wyh</text>

  <text x="340" y="126" font-family="Noto Sans SC, Microsoft YaHei, Arial" font-size="26" font-weight="800" fill="#23251F">5 天工作餐规划</text>
  <rect x="1118" y="100" width="92" height="36" rx="9" fill="#FFFFFF" stroke="#D9D5C8"/><text x="1144" y="123" font-family="Noto Sans SC, Microsoft YaHei, Arial" font-size="13" fill="#23251F">重新校验</text>
  <rect x="1224" y="100" width="92" height="36" rx="9" fill="#2F6F4E"/><text x="1250" y="123" font-family="Noto Sans SC, Microsoft YaHei, Arial" font-size="13" font-weight="800" fill="#FFFFFF">确认保存</text>
  <rect x="340" y="154" width="976" height="56" rx="10" fill="#FBFAF6" stroke="#D9D5C8"/>
  <text x="364" y="188" font-family="Noto Sans SC, Microsoft YaHei, Arial" font-size="13" fill="#6F7468">人数：2 人 · 天数：5 天 · 预算：300 元 · 目标：均衡高蛋白 · 忌口：不吃猪肉 · 晚餐 30 分钟内</text>

  <rect x="340" y="238" width="620" height="300" rx="10" fill="#FFFFFF" stroke="#D9D5C8"/>
  <text x="366" y="272" font-family="Noto Sans SC, Microsoft YaHei, Arial" font-size="16" font-weight="800" fill="#23251F">多日菜单</text>
  <rect x="366" y="294" width="568" height="36" fill="#F2EFE6"/>
  <text x="384" y="317" font-family="Noto Sans SC, Microsoft YaHei, Arial" font-size="12" font-weight="700" fill="#23251F">日期</text><text x="486" y="317" font-family="Noto Sans SC, Microsoft YaHei, Arial" font-size="12" font-weight="700" fill="#23251F">午餐</text><text x="682" y="317" font-family="Noto Sans SC, Microsoft YaHei, Arial" font-size="12" font-weight="700" fill="#23251F">晚餐</text>
  <text x="384" y="364" font-family="Noto Sans SC, Microsoft YaHei, Arial" font-size="12" fill="#23251F">周一</text><text x="486" y="364" font-family="Noto Sans SC, Microsoft YaHei, Arial" font-size="12" fill="#23251F">鸡胸藜麦碗</text><text x="682" y="364" font-family="Noto Sans SC, Microsoft YaHei, Arial" font-size="12" fill="#23251F">番茄豆腐汤</text>
  <line x1="366" y1="384" x2="934" y2="384" stroke="#E5E0D3"/>
  <text x="384" y="424" font-family="Noto Sans SC, Microsoft YaHei, Arial" font-size="12" fill="#23251F">周二</text><text x="486" y="424" font-family="Noto Sans SC, Microsoft YaHei, Arial" font-size="12" fill="#23251F">牛肉蔬菜饭</text><text x="682" y="424" font-family="Noto Sans SC, Microsoft YaHei, Arial" font-size="12" fill="#23251F">鸡蛋菠菜面</text>
  <line x1="366" y1="444" x2="934" y2="444" stroke="#E5E0D3"/>
  <text x="384" y="484" font-family="Noto Sans SC, Microsoft YaHei, Arial" font-size="12" fill="#23251F">周三</text><text x="486" y="484" font-family="Noto Sans SC, Microsoft YaHei, Arial" font-size="12" fill="#23251F">豆腐鸡蛋便当</text><text x="682" y="484" font-family="Noto Sans SC, Microsoft YaHei, Arial" font-size="12" fill="#23251F">虾仁西兰花</text>

  <rect x="990" y="238" width="326" height="138" rx="10" fill="#FBFAF6" stroke="#D9D5C8"/><text x="1016" y="272" font-family="Noto Sans SC, Microsoft YaHei, Arial" font-size="16" font-weight="800" fill="#23251F">购物清单</text>
  <text x="1016" y="304" font-family="Noto Sans SC, Microsoft YaHei, Arial" font-size="12" fill="#23251F">蛋白质：鸡胸肉 1.2kg、鸡蛋 12 个、豆腐 4 盒</text>
  <text x="1016" y="332" font-family="Noto Sans SC, Microsoft YaHei, Arial" font-size="12" fill="#23251F">蔬菜：西兰花、菠菜、番茄、胡萝卜</text>
  <text x="1016" y="360" font-family="Noto Sans SC, Microsoft YaHei, Arial" font-size="12" fill="#6F7468">预估：286 元 / 预算 300 元</text>
  <rect x="990" y="400" width="326" height="138" rx="10" fill="#EDF4EF" stroke="#B9D1BF"/><text x="1016" y="434" font-family="Noto Sans SC, Microsoft YaHei, Arial" font-size="16" font-weight="800" fill="#23251F">计划校验</text>
  <text x="1016" y="464" font-family="Noto Sans SC, Microsoft YaHei, Arial" font-size="12" fill="#2F6F4E">预算通过：286 / 300 元</text>
  <text x="1016" y="492" font-family="Noto Sans SC, Microsoft YaHei, Arial" font-size="12" fill="#2F6F4E">蛋白质目标通过：日均 78g</text>
  <text x="1016" y="520" font-family="Noto Sans SC, Microsoft YaHei, Arial" font-size="12" fill="#D88A3D">提醒：周四晚餐接近 35 分钟</text>

  <text x="456" y="628" font-family="Noto Sans SC, Microsoft YaHei, Arial" font-size="15" font-weight="700" fill="#D88A3D">🔧 Tools（3/6）⌄</text>
  <text x="610" y="628" font-family="Noto Sans SC, Microsoft YaHei, Arial" font-size="15" font-weight="700" fill="#2F6F4E">🤖 Agents（1/1）⌄</text>
  <rect x="438" y="646" width="876" height="54" rx="13" fill="#FFFFFF" stroke="#D9D5C8"/>
  <text x="526" y="680" font-family="Noto Sans SC, Microsoft YaHei, Arial" font-size="15" fill="#9AA194">继续要求 FoodMate 修改预算、替换食材或生成购物清单...</text>
</svg>
